<svg width="60" height="42" viewBox="0 0 60 42" fill="none" xmlns="http://www.w3.org/2000/svg">
<path d="M37.8704 35.9761C36.8316 35.6612 35.807 35.3339 34.7966 34.996V12.5974H37.8704V35.9761ZM31.4685 33.8202C30.4226 33.4306 29.3962 33.0304 28.3965 32.6195V12.8126C29.3998 12.9034 30.4226 13.0136 31.4685 13.1471V33.8202ZM25.0666 31.1751C24.0065 30.6895 22.9819 30.1914 21.9929 29.6845V12.5974H25.0666V31.1751ZM18.6647 12.6757V27.8523C17.9212 27.413 17.2079 26.9701 16.5266 26.5218C16.2047 26.3101 15.8952 26.1002 15.5928 25.8885V13.0723C16.5355 12.8998 17.5619 12.7682 18.6647 12.6757Z" fill="#3A9086"/>
<mask id="mask0_16_1602" style="mask-type:luminance" maskUnits="userSpaceOnUse" x="15" y="0" width="23" height="4">
<path d="M15.938 0H37.7958V3.12712H15.938V0Z" fill="white"/>
</mask>
<g mask="url(#mask0_16_1602)">
<path d="M15.9575 0.0107422H37.504V3.08272H15.9575V0.0107422Z" fill="#309689"/>
</g>
<path d="M42.1876 5.90747V8.98122H11.2739V5.90747H42.1876Z" fill="#309689"/>
<mask id="mask1_16_1602" style="mask-type:luminance" maskUnits="userSpaceOnUse" x="0" y="9" width="60" height="33">
<path d="M0 9.95776H59.8279V41.8337H0V9.95776Z" fill="white"/>
</mask>
<g mask="url(#mask1_16_1602)">
<path d="M0.195746 15.8068C1.78776 10.0702 15.2141 8.62933 31.732 11.9165C18.7432 10.2409 8.91894 11.8525 7.61865 16.5343C5.85764 22.8828 20.4402 32.474 40.1901 37.9563C47.2306 39.9112 53.9775 41.0781 59.8244 41.4854C52.647 41.8607 43.1642 40.6956 33.0998 37.9011C13.0831 32.346 -1.64886 22.4541 0.195746 15.8068Z" fill="#990505"/>
</g>
</svg>
